<?xml version="1.0" encoding="UTF-8" standalone="no"?>
<!-- Created with Inkscape (http://www.inkscape.org/) -->

<svg
   version="1.1"
   id="svg1005"
   width="238"
   height="245"
   viewBox="0 0 238 245"
   xmlns="http://www.w3.org/2000/svg"
   xmlns:svg="http://www.w3.org/2000/svg">
  <defs
     id="defs1009" />
  <g
     id="g1011">
    <g
       id="g1171"
       transform="translate(-0.42643795,-17.55889)">
      <path
         style="fill:#9aaba5"
         d="m 128.54494,244.07272 c -0.71337,-1.15426 2.18254,-8.58619 7.35184,-18.86742 3.79203,-7.54199 16.73037,-25.90227 20.6978,-29.37142 2.47054,-2.16026 8.17934,-4.31808 16.90542,-6.38992 3.85,-0.91411 8.35,-2.52603 10,-3.58205 2.91226,-1.86387 2.92421,-1.90255 0.40857,-1.32236 -1.42529,0.32872 -6.3125,-0.10821 -10.86047,-0.97094 -10.17014,-1.92924 -17.29278,-1.99975 -20.84776,-0.20637 -1.48519,0.74923 -4.65707,1.61234 -7.04863,1.91803 -6.00086,0.76701 -8.40835,3.44212 -12.19136,13.54658 -1.78593,4.77023 -4.91423,12.04815 -6.95177,16.17315 -2.03755,4.125 -4.98824,10.81124 -6.55709,14.85832 -2.62117,6.76168 -4.62089,9.30561 -6.12924,7.79726 -0.94275,-0.94275 2.51268,-22.91048 4.73596,-30.1086 1.37903,-4.4648 2.81544,-7.07331 4.50438,-8.17995 2.04267,-1.3384 2.37672,-2.17482 1.89543,-4.74589 -0.80779,-4.31527 5.79294,-14.56191 11.46882,-17.80361 2.23177,-1.27464 4.06122,-3.04314 4.06546,-3.92999 0.004,-0.88686 1.3577,-4.88625 3.0077,-8.88754 1.65,-4.00129 3,-8.28833 3,-9.52675 0,-1.23843 0.87181,-3.31403 1.93735,-4.61247 1.5742,-1.91826 2.27712,-2.15435 3.75,-1.2595 2.54412,1.54568 2.70775,6.67777 0.46768,14.66919 -1.11921,3.99278 -1.51302,7.00828 -0.95989,7.35013 1.22877,0.75942 0.82028,1.39789 6.79502,-10.6206 5.87151,-11.81082 8.34137,-15 11.61677,-15 4.13161,0 3.86407,3.38325 -1.0894,13.77663 -2.54878,5.34785 -5.05791,10.50476 -5.57584,11.4598 -1.32071,2.43532 -1.17227,3.76357 0.4206,3.76357 1.67667,0 12.15187,-11.58007 15.85763,-17.53021 1.49595,-2.40197 3.53257,-4.80214 4.52582,-5.33371 2.59737,-1.39007 5.25426,0.42925 5.25426,3.59789 0,3.57538 -3.63387,10.83287 -6.58732,13.15606 -2.18684,1.72017 -3.26077,4.10997 -1.84694,4.10997 1.33444,0 5.24248,-2.57938 9.32505,-6.15473 5.08898,-4.45671 8.37697,-4.89245 10.65723,-1.41233 2.13279,3.25505 0.95638,5.45427 -6.89709,12.89371 -3.38301,3.20465 -5.25093,5.50459 -4.15093,5.11098 1.1,-0.39362 4.475,-0.92207 7.5,-1.17434 4.59321,-0.38304 5.9625,-0.0937 8.30523,1.75504 1.97885,1.56159 2.71531,2.94512 2.5,4.69659 -0.25927,2.10897 -1.58527,2.97985 -8.80523,5.78305 -4.675,1.81509 -14.8,5.19021 -22.5,7.50026 -7.7,2.31005 -15.62093,4.86879 -17.60206,5.68609 -4.37652,1.8055 -8.89794,5.83817 -8.89794,7.93609 0,2.11675 -2.92343,25.35164 -3.53929,28.12959 -0.46905,2.11574 -1.00135,2.25 -8.92075,2.25 -4.63206,0 -8.67982,-0.41728 -8.99502,-0.92728 z M 45,243.2727 c -3.575,-0.20807 -6.865107,-0.74215 -7.311348,-1.18685 -0.764887,-0.76225 3.791799,-14.788 16.717122,-51.45631 C 57.482598,181.90079 60,173.84032 60,172.7174 60,168.80164 55.049547,162.42774 44.007427,152.12634 34.605763,143.35535 24.611282,132.23937 21.601501,127.2062 20.505341,125.37312 22.801959,123 25.672105,123 c 4.311547,0 8.076607,2.82441 14.623307,10.96987 3.527308,4.38871 8.948458,10.06656 12.047,12.61745 7.475652,6.15437 9.280603,9.3552 11.57113,20.51979 2.142542,10.44329 4.46563,49.81674 3.91727,66.39289 l -0.330812,10 -8,0.0755 C 55.1,243.617 48.575,243.4808 45,243.2727 Z m 28.791277,-45.81476 c -0.324322,-0.32432 -0.422706,-3.14753 -0.218632,-6.27381 2.134739,-32.70264 2.579215,-42.44294 2.035619,-44.60879 -0.830917,-3.31064 -5.604072,-5.76577 -12.958488,-6.66536 -6.592414,-0.80638 -12.262458,-4.23599 -21.741895,-13.15089 -4.689045,-4.4098 -6.105637,-6.61448 -8.771992,-13.65212 -3.33647,-8.80635 -3.34456,-11.58858 -0.03675,-12.63844 2.880798,-0.914326 4.709199,1.05137 8.597466,9.24306 5.217058,10.99115 7.290252,11.31835 5.312849,0.83852 -1.404511,-7.44362 -0.723693,-13.062053 1.695286,-13.990303 2.6883,-1.031597 4.555517,1.918586 5.464398,8.633693 0.88678,6.55181 4.429291,18.60277 5.954622,20.2565 2.118233,2.29654 3.081531,-1.6207 2.99644,-12.18499 -0.09347,-11.60405 1.001777,-15.199652 4.250199,-13.953116 2.705182,1.038076 3.491236,4.809206 3.469749,16.646286 -0.01118,6.15724 0.215277,11.43058 0.503233,11.71854 1.334246,1.33424 2.629301,-1.32645 4.212748,-8.65509 1.792578,-8.29656 4.083957,-11.75746 7.034676,-10.62516 1.804463,0.69244 1.783112,1.22173 -0.692696,17.17189 -1.207673,7.78031 -1.166601,8.24442 1.150417,13 2.57722,5.28963 2.857699,9.70373 1.774821,27.93164 -0.742106,12.49173 -7.53527,33.45474 -10.03207,30.95794 z M 112.41271,146.05722 C 108.40172,145.09833 107,144.18955 107,142.54797 c 0,-0.7337 -0.675,-1.59301 -1.5,-1.9096 -0.825,-0.31658 -1.5,-1.20962 -1.5,-1.98454 0,-0.77492 -0.67065,-1.96553 -1.49033,-2.64581 -0.95358,-0.79139 -1.27105,-2.11057 -0.88148,-3.66274 0.3936,-1.56822 0.0182,-3.07854 -1.06184,-4.27196 -1.573694,-1.73892 -1.52252,-1.96264 0.88148,-3.85363 1.5698,-1.2348 2.55217,-3.01065 2.55217,-4.61361 0,-3.2171 0.3222,-3.22485 4.41111,-0.10608 1.80272,1.375 4.26215,2.5 5.4654,2.5 3.13697,0 8.31571,-2.37842 10.48726,-4.81644 1.82561,-2.04963 1.81537,-2.1538 -0.5,-5.0871 -1.30007,-1.64704 -3.10977,-3.25969 -4.02154,-3.58366 -0.91178,-0.32397 -3.52409,-2.70938 -5.80513,-5.30092 -2.28104,-2.59153 -4.79754,-5.424629 -5.59222,-6.295768 C 107.65019,96.044974 107,94.637574 107,93.788557 c 0,-0.849017 -0.68516,-2.1123 -1.52258,-2.807295 -0.84146,-0.698353 -1.27061,-2.057508 -0.95932,-3.038288 0.30979,-0.976063 0.0949,-2.064088 -0.47742,-2.417834 C 103.4683,85.171394 103,83.648524 103,82.140983 c 0,-1.507541 -0.55123,-3.292215 -1.22496,-3.965942 -0.96661,-0.966613 -0.96332,-1.643903 0.0156,-3.211393 1.01219,-1.620778 0.95742,-2.418544 -0.29757,-4.333898 -1.3869,-2.116677 -1.38406,-2.47532 0.0289,-3.647949 1.06277,-0.88202 1.37215,-2.187559 0.96149,-4.057293 -0.41336,-1.882021 -0.13768,-3.021406 0.86878,-3.590659 0.81085,-0.458617 1.62582,-2.183849 1.81104,-3.833849 0.23929,-2.131741 0.84324,-2.959803 2.08676,-2.861111 0.9625,0.07639 1.75,-0.261111 1.75,-0.75 0,-2.105181 2.01574,-0.645302 2.56974,1.861111 3.2552,14.727095 5.70815,20.100361 10.54513,23.099419 1.19701,0.742181 6.04835,1.976052 10.78076,2.741936 9.62482,1.557664 12.77154,3.349242 15.36224,8.746467 2.83294,5.901876 5.36659,4.989196 11.49941,-4.142354 3.76834,-5.610923 11.45087,-11.87794 16.36598,-13.350545 3.52604,-1.056427 4.23801,-0.953938 6.8649,0.988204 1.61197,1.19178 3.56898,2.166873 4.3489,2.166873 2.54341,0 3.7526,2.422704 2.27999,4.56815 C 188.88776,79.630668 186.81617,85 185.01352,90.5 c -1.80265,5.5 -4.68064,11.9688 -6.39553,14.3751 -5.12551,7.19203 -17.41838,13.62401 -36.61799,19.15959 -10.44927,3.0127 -13.33275,5.45023 -16.02785,13.54901 -1.89196,5.68533 -2.67183,6.8107 -5.55445,8.01513 -3.66268,1.53037 -3.5483,1.52382 -8.00499,0.45839 z m 37.47117,-58.782889 c -0.80858,-0.975882 -2.06678,-2.969808 -2.79601,-4.430948 -1.58152,-3.168844 -5.17731,-5.100643 -14.58787,-7.83717 -7.53372,-2.190755 -9.15839,-3.151951 -11.79589,-6.978719 -2.81008,-4.077173 -2.12612,-8.116236 2.56241,-15.132007 C 128.7005,44.764255 133.5325,42.144 143.25,42.059025 c 3.7125,-0.03246 6.75,0.346858 6.75,0.842937 0,0.496079 -1.6875,1.776065 -3.75,2.844414 -4.62513,2.395758 -6.20742,6.096157 -4.20589,9.836044 0.77611,1.450175 4.68369,6.19065 8.6835,10.534387 8.15125,8.852127 8.60009,10.46264 4.96336,17.809167 -2.53103,5.112926 -3.75859,5.820732 -5.80709,3.348357 z m 48.71368,-5.453292 C 198.33564,80.544468 197.86905,78.2625 197.56068,76.75 c -0.30838,-1.5125 -0.84331,-3.902058 -1.18875,-5.310128 -0.51071,-2.081747 -0.21036,-2.669362 1.60736,-3.144707 1.85504,-0.485104 2.15485,-1.112987 1.76187,-3.689872 C 199.12485,60.56398 199.74731,59 201.97204,59 c 1.26744,0 1.99871,-1.030548 2.45422,-3.458648 C 205.0428,52.254939 209.24756,48 211.87869,48 c 0.58847,0 1.73986,-1.295468 2.55864,-2.878819 0.81879,-1.58335 2.18034,-3.144227 3.02568,-3.468615 C 218.30836,41.328178 219,40.389479 219,39.566569 c 0,-1.876307 3.35975,-3.749487 5.35312,-2.984559 0.92483,0.354891 2.14443,-0.411732 3.18745,-2.003586 C 228.68527,32.831399 230.12577,32 232.00802,32 c 4.22477,0 5.36939,4.608899 2.24198,9.027494 -0.9625,1.359878 -1.82695,3.372506 -1.92101,4.472506 -0.0941,1.1 -0.39713,2.9 -0.67349,4 -0.27636,1.1 -0.53691,2.573638 -0.57899,3.274751 C 231.03443,53.475864 229.875,54.477226 228.5,55 c -1.375,0.522774 -2.5,1.472534 -2.5,2.110578 0,0.638045 -1.0125,2.191525 -2.25,3.45218 C 215.80809,68.653262 214.2898,70 213.11058,70 c -0.63805,0 -1.57919,1.102336 -2.09143,2.449635 -0.64365,1.692913 -2.16149,2.780878 -4.91353,3.521924 -3.45827,0.931215 -4.02318,1.486852 -4.2939,4.223353 -0.37446,3.785228 -2.5458,4.883764 -3.21416,1.626127 z M 236,28 c 0,-1.1 0.45,-2 1,-2 0.55,0 1,0.9 1,2 0,1.1 -0.45,2 -1,2 -0.55,0 -1,-0.9 -1,-2 z m -3.56846,-9.510365 c -1.68765,-0.740969 -3.6474,-2.044804 -4.355,-2.897412 -0.96999,-1.168769 -1.7579,-1.297937 -3.20221,-0.524965 -2.55942,1.369758 -3.70496,0.497596 -3.15121,-2.399173 0.40294,-2.107839 -0.13874,-2.573819 -4.74229,-4.0795631 -3.21325,-1.0510018 -6.3584,-1.4448682 -8.23914,-1.0317877 -2.52524,0.5546361 -2.93785,0.3968254 -2.42906,-0.92905 C 207.0023,4.8304441 204.35484,3 201.06574,3 199.92958,3 199,2.4975159 199,1.8833686 c 0,-0.6241165 -0.8817,-0.88606035 -1.999,-0.59388 -1.09946,0.2875132 -2.23413,0.142314 -2.5215,-0.32266492 -0.28738,-0.46497891 9.38717,-0.88195947 21.499,-0.92662347 L 238,-0.04100707 V 9.9794965 c 0,10.8552145 -0.0507,10.9327225 -5.56846,8.5101385 z"
         id="path1177" />
      <path
         style="fill:#8b645c"
         d="m 129.72425,244.39092 c -1.93526,-1.93526 10.2524,-25.26129 19.5212,-37.36175 8.18888,-10.6906 11.71759,-13.15014 22.2348,-15.49784 3.86086,-0.86183 10.84475,-3.3541 15.51975,-5.53837 4.675,-2.18428 9.53485,-3.97626 10.79966,-3.98218 2.93938,-0.0138 7.79092,2.47991 8.51972,4.37912 1.11099,2.8952 -4.3449,5.28579 -29.81938,13.06584 -11.25318,3.43679 -20.5284,6.87127 -22.74859,8.42349 -4.44693,3.109 -5.10894,5.18485 -6.73565,21.12077 -1.76779,17.31798 -0.98874,16 -9.4575,16 -3.97371,0 -7.49901,-0.27409 -7.83401,-0.60908 z M 46.75,242.27723 C 40.82106,242.00078 39,241.57592 39,240.46912 39,239.6734 44.175,224.28027 50.5,206.26216 56.825,188.24405 62,172.80212 62,171.94676 62,168.62667 55.788595,160.97446 42.914059,148.43362 29.485942,135.35354 23,128.06889 23,126.06726 23,125.48027 24.657589,125 26.68353,125 c 3.175875,0 4.312871,0.70918 8.25,5.1458 2.511559,2.83019 8.652079,9.24269 13.645601,14.25 4.993523,5.00731 9.815665,10.23927 10.715872,11.62659 3.099445,4.77656 5.496125,22.38392 6.734798,49.47761 0.653769,14.3 1.027014,28.475 0.829435,31.5 L 66.5,242.5 l -6,0.0693 c -3.3,0.0381 -9.4875,-0.0933 -13.75,-0.29207 z M 115,231.83099 c 0,-4.79007 2.98447,-19.71446 5.04211,-25.214 1.52434,-4.07416 2.93022,-5.99313 5.50267,-7.51091 3.69972,-2.18289 4.37301,-3.81666 1.95522,-4.74445 -2.32442,-0.89197 -1.79077,-3.65347 1.63518,-8.46159 4.19347,-5.88529 7.81881,-8.82051 10.94815,-8.86408 3.38039,-0.0471 4.05579,-0.84033 2.64238,-3.10355 -1.22539,-1.96216 -0.46815,-4.99303 3.35596,-13.43241 0.99688,-2.2 1.94882,-5.34615 2.11542,-6.99145 0.34213,-3.37874 3.40064,-4.72043 4.46108,-1.95697 0.35866,0.93467 -0.38366,5.71697 -1.64961,10.62733 -2.32385,9.01378 -2.03902,11.53748 1.16345,10.30858 0.82855,-0.31795 3.42126,-4.4589 5.76158,-9.20212 C 164.04473,150.89965 166.69766,147 169.01254,147 c 1.23452,0 1.97914,0.66298 1.9655,1.75 -0.0253,2.01514 -3.49567,9.98708 -5.3249,12.23202 -0.68029,0.83489 -2.08292,4.1181 -3.11697,7.29603 -2.10137,6.45814 -1.34762,8.76178 2.23883,6.84237 2.73124,-1.46172 10.67132,-10.42206 15.39255,-17.37042 4.19651,-6.17612 5.21635,-6.76971 6.73991,-3.92291 1.36163,2.54423 -2.99241,11.79886 -6.24915,13.28273 -1.47491,0.67202 -2.43294,1.95171 -2.43265,3.2494 2.8e-4,1.17743 -0.35627,3.26187 -0.79232,4.63209 -0.78812,2.47657 -0.77844,2.48092 1.63692,0.73474 1.33636,-0.96611 3.54857,-2.3122 4.91603,-2.99131 1.36745,-0.67911 4.17995,-2.92224 6.25,-4.98474 3.99235,-3.97781 8.3518,-4.987 9.42797,-2.18254 0.95269,2.48267 -1.42168,5.84366 -8.37248,11.85151 -7.41308,6.4074 -7.80845,6.47668 -22.46548,3.93626 -9.52266,-1.65051 -9.77357,-1.64295 -16.0705,0.48404 -3.51823,1.1884 -7.66193,2.16073 -9.20822,2.16073 -3.82984,0 -8.54689,5.19881 -10.94743,12.06552 C 130.23606,202.82793 117.1387,232.15891 115.9066,233.45 115.3532,234.02989 115,233.39913 115,231.83099 Z M 76.09185,179 c -0.04217,-6.325 0.361232,-15.30916 0.896446,-19.96479 1.692598,-14.72328 -0.66433,-18.43208 -12.806259,-20.15159 -7.515949,-1.06439 -8.776642,-1.75587 -19.309342,-10.59104 -7.1544,-6.00134 -7.828665,-6.91887 -10.874967,-14.79846 -1.786214,-4.62023 -2.967787,-9.12976 -2.625719,-10.02118 1.113056,-2.90057 4.074865,-1.07507 6.540165,4.03101 1.326696,2.74783 2.784484,5.67105 3.239528,6.49605 0.455044,0.825 1.741211,3.1875 2.858149,5.25 2.399516,4.43086 3.984155,4.82648 4.005462,1 0.0084,-1.5125 0.435656,-3.41472 0.94941,-4.22716 0.633235,-1.00138 0.450926,-2.01106 -0.566021,-3.13477 C 46.305752,110.57538 46.810399,98.5 49,98.5 c 1.020366,0 1.770916,1.59878 2.347257,5 1.278223,7.5433 5.812668,22.38784 7.187062,23.52848 C 62.203826,130.0739 64,123.7918 64,107.91233 c 0,-3.73686 0.399012,-7.0409 0.886693,-7.3423 2.075187,-1.282538 2.961066,2.69617 3.277115,14.71835 0.253552,9.64483 0.68262,13.00201 1.745508,13.65748 2.715816,1.6748 4.04863,-0.20447 5.745555,-8.10121 1.833972,-8.53449 3.571408,-12.01675 5.161364,-10.34465 1.625702,1.70969 -1.97585,21.16501 -4.222106,22.80751 -1.839356,1.34497 -1.835183,1.39619 0.156165,1.91694 3.073876,0.80384 5.284006,4.92835 6.525915,12.17856 0.994197,5.80408 0.921634,6.72089 -0.671252,8.48101 -1.581714,1.74778 -1.636491,2.38678 -0.479005,5.58775 1.117563,3.09056 1.047553,4.87597 -0.483142,12.32126 C 80.658263,178.58186 79.023779,184.3 78.010623,186.5 l -1.842102,4 -0.07667,-11.5 z"
         id="path1175" />
      <path
         style="fill:#565355"
         d="m 131.41895,240.22973 c 4.55905,-12.92173 21.49828,-39.32458 27.93538,-43.54233 1.45701,-0.95467 6.95121,-2.88081 12.20932,-4.28031 5.25812,-1.3995 12.78215,-4.08862 16.72007,-5.97582 7.69251,-3.68654 10.18518,-4.08601 14.16923,-2.27075 4.46766,2.0356 3.14717,4.28653 -4.20295,7.16442 -6.69277,2.62052 -23.26118,7.95569 -34.69122,11.17089 -5.2074,1.4648 -13.58046,6.1122 -14.9215,8.28205 -0.42934,0.69469 -3.41654,24.19535 -3.87336,30.47212 -0.19855,2.72826 -0.25736,2.75 -7.43767,2.75 h -7.23753 z M 116.34112,226.5 c 0.3035,-1.65 0.85503,-5.025 1.22562,-7.5 0.37058,-2.475 1.53778,-7.31259 2.59377,-10.75021 1.70811,-5.56049 2.37131,-6.48046 6.00991,-8.33673 l 4.08993,-2.08653 -0.68729,2.83673 c -0.82691,3.41296 -11.40597,26.41976 -12.79998,27.83674 -0.64699,0.65766 -0.79487,-0.027 -0.43196,-2 z M 129.25,193.5393 c -2.97714,-1.34111 -2.84714,-2.41489 0.92236,-7.61854 4.48692,-6.19401 6.79954,-7.84946 11.01862,-7.88749 4.54024,-0.0409 5.81972,-1.76229 2.93005,-3.94198 l -2.16662,-1.63428 2.6224,-6.47851 c 1.44232,-3.56317 3.07792,-7.03527 3.63467,-7.71577 0.55675,-0.68049 0.75105,-1.91799 0.43178,-2.75 C 147.8498,153.445 148.91375,151 150.60699,151 c 1.93531,0 1.74583,2.972 -0.77622,12.17476 -1.92284,7.01627 -1.9998,8.08478 -0.67754,9.40704 2.69071,2.69072 4.86264,0.3558 10.93266,-11.75313 5.39965,-10.77164 7.95589,-14.12022 9.5569,-12.51921 0.80216,0.80216 -1.28329,6.61255 -3.83702,10.69054 -2.40132,3.83462 -5.72147,12.54343 -5.77312,15.14301 -0.0419,2.10851 2.59606,3.12607 4.90318,1.89133 2.45594,-1.31438 13.16677,-13.57256 16.47034,-18.84973 2.99245,-4.78019 5.27164,-5.05728 4.76853,-0.57972 -0.47184,4.19936 -3.94928,9.30043 -6.83368,10.02437 -1.97028,0.49451 -2.37732,1.08999 -1.93894,2.83663 0.30518,1.21591 -0.0961,3.07099 -0.89181,4.12242 -3.42205,4.52205 -0.52542,5.95803 4.163,2.06378 1.5547,-1.29134 4.01046,-2.63642 5.45724,-2.98906 1.44678,-0.35263 2.86124,-1.52348 3.14325,-2.60187 0.6184,-2.36477 6.44067,-6.10797 8.35681,-5.37268 0.75319,0.28902 1.36943,1.27785 1.36943,2.1974 0,2.09581 -11.63195,13.68106 -15,14.93976 -1.7254,0.64482 -5.75331,0.36345 -13,-0.9081 -10.60429,-1.86071 -14.85148,-1.70913 -20.71788,0.73938 -1.76984,0.7387 -4.54781,1.34308 -6.17328,1.34308 -3.4585,0 -8.4125,3.81764 -10.89705,8.39748 -1.49397,2.75386 -1.9981,3.02641 -3.96179,2.14182 z"
         id="path1173" />
    </g>
  </g>
</svg>
